name C:\Users\tom_v\My Drive\PostDoc\MusculoskeletalSpecialization\ResultsSprinting\Case_4\motion.mot
datacolumns 32
datarows 16
range 0.00000000 0.08077273
endheader 
time	pelvis_tilt	pelvis_list	pelvis_rotation	pelvis_tx	pelvis_ty	pelvis_tz	hip_flexion_r	hip_adduction_r	hip_rotation_r	knee_angle_r	ankle_angle_r	subtalar_angle_r	mtp_angle_r	hip_flexion_l	hip_adduction_l	hip_rotation_l	knee_angle_l	ankle_angle_l	subtalar_angle_l	mtp_angle_l	lumbar_extension	lumbar_bending	lumbar_rotation	arm_flex_r	arm_add_r	arm_rot_r	elbow_flex_r	arm_flex_l	arm_add_l	arm_rot_l	elbow_flex_l	
          0.00000000	        -16.42357562	          0.01265610	         -1.73894004	          0.00000000	          0.93534737	         -0.00060902	         46.62001803	          3.31914590	          3.16155581	        -23.83883202	         13.20193018	          1.88955868	          0.48687618	         11.99207079	         -0.66159662	         -3.02241226	        -44.64045646	          0.25543353	          8.05035402	         11.19854796	        -11.18849688	          3.18854459	         -2.95166280	         24.43504213	          1.58628298	         -1.27852164	         14.56623112	         24.81838653	         -2.16503558	          4.62636327	          0.27712039	
          0.00538485	        -16.38986292	          0.03024875	         -1.53836957	          0.01820977	          0.93285958	         -0.00048692	         46.45286558	          3.37364261	          3.42712569	        -25.15151884	         11.87369149	          1.53436650	          0.43455362	         12.72187495	         -0.80776981	         -3.13474355	        -45.77271332	          1.46451106	          7.98378954	         10.45336653	        -11.17303337	          3.17893344	         -2.80911891	         24.24895118	          1.51553539	         -1.21428946	         14.58917140	         24.86526831	         -2.15498863	          4.46558154	          0.45324257	
          0.01076970	        -16.35682019	          0.04014110	         -1.32590612	          0.03640958	          0.93030298	         -0.00036411	         46.17432487	          3.43039329	          3.68459715	        -26.51309879	         11.34441022	          1.10892496	          0.37195862	         13.52682556	         -0.95152486	         -3.24986664	        -46.83294967	          2.76325819	          7.88262686	          9.75688765	        -11.15852114	          3.16656055	         -2.65926337	         24.06261512	          1.43924593	         -1.15635284	         14.59738257	         24.91081874	         -2.14132197	          4.28072117	          0.67066176	
          0.01615455	        -16.32674331	          0.04370770	         -1.11145857	          0.05451646	          0.92775990	         -0.00023009	         45.83533652	          3.48827622	          3.89522909	        -27.82638343	         11.11316499	          0.60639478	          0.34329480	         14.41949299	         -1.08813847	         -3.36115424	        -47.83679411	          4.13432393	          7.75507773	          9.10525475	        -11.15662117	          3.14828386	         -2.49652806	         23.89888123	          1.35966824	         -1.10020077	         14.57606299	         24.97158376	         -2.12414019	          4.07061034	          0.92413482	
          0.02153940	        -16.30066240	          0.04232252	         -0.89964386	          0.07244311	          0.92530621	         -0.00008609	         45.54366882	          3.55609480	          4.05533125	        -29.22166687	         11.07913638	         -0.02517504	          0.30493843	         15.41220917	         -1.20877109	         -3.45153564	        -48.80422216	          5.57553696	          7.60403509	          8.49501592	        -11.18020523	          3.12386144	         -2.32172662	         23.78301655	          1.27942464	         -1.04153083	         14.50955011	         25.06422437	         -2.10373312	          3.83357447	          1.20874046	
          0.02692424	        -16.27889387	          0.03078558	         -0.69066759	          0.09016678	          0.92301748	          0.00006990	         45.33083503	          3.65297201	          4.20004125	        -30.75638024	         11.37694785	         -0.67409862	          0.27465086	         16.50057898	         -1.31565758	         -3.51463397	        -49.73013487	          7.08075551	          7.43128350	          7.92397423	        -11.23187940	          3.09902124	         -2.13713648	         23.72388443	          1.19923686	         -0.97820101	         14.38822657	         25.19215871	         -2.07913901	          3.57074029	          1.52247255	
          0.03230909	        -16.26110618	          0.00810576	         -0.47848901	          0.10772967	          0.92095175	          0.00023212	         45.13867361	          3.77974233	          4.35206836	        -32.33883812	         11.97292145	         -1.28886796	          0.29896168	         17.66608870	         -1.40985529	         -3.55374215	        -50.58979175	          8.63923012	          7.24164001	          7.38956797	        -11.30349246	          3.07369305	         -1.94766900	         23.71091963	          1.11784778	         -0.91292131	         14.21333888	         25.34812200	         -2.04801340	          3.28857240	          1.86228287	
          0.03769394	        -16.24717732	         -0.02410793	         -0.26106228	          0.12517584	          0.91915393	          0.00040053	         44.90543207	          3.93184425	          4.51964754	        -33.87939618	         12.89537721	         -1.84049726	          0.42290031	         18.89127496	         -1.49131054	         -3.57761751	        -51.36368761	         10.23842275	          7.03745930	          6.88925849	        -11.38682789	          3.04385786	         -1.75333499	         23.73135001	          1.03343555	         -0.84917881	         13.98969929	         25.52563976	         -2.00762824	          2.99457703	          2.22347904	
          0.04307879	        -16.23706515	         -0.06143242	         -0.03755131	          0.14254036	          0.91765500	          0.00056997	         44.58072625	          4.09195106	          4.68760718	        -35.27971405	         13.94068919	         -2.34180878	          0.66062493	         20.16189125	         -1.55667488	         -3.59468493	        -52.04062594	         11.85311315	          6.82517780	          6.42060143	        -11.47542798	          3.00367635	         -1.55468261	         23.77512357	          0.94437272	         -0.78863572	         13.72202156	         25.71923975	         -1.95562759	          2.69421729	          2.60174969	
          0.04846364	        -16.23070851	         -0.09887133	          0.19061229	          0.15985040	          0.91646794	          0.00073521	         44.13773827	          4.24622260	          4.84651973	        -36.48510879	         14.98179303	         -2.80408059	          1.04500448	         21.46553950	         -1.60222543	         -3.61308794	        -52.61559370	         13.45353948	          6.61336310	          5.98001485	        -11.56467470	          2.94834186	         -1.35172630	         23.83508945	          0.84958195	         -0.73152835	         13.41477622	         25.92346148	         -1.89046237	          2.39060119	          2.99457071	
          0.05384849	        -16.22804014	         -0.13352812	          0.42093730	          0.17712281	          0.91559323	          0.00089209	         43.57181804	          4.38627829	          4.99054157	        -37.48342505	         15.96499875	         -3.22380210	          1.55743621	         22.79235778	         -1.62636661	         -3.63858268	        -53.08931263	         15.01757657	          6.40657942	          5.56352018	        -11.65224501	          2.87632777	         -1.14472969	         23.90775435	          0.74860905	         -0.67621360	         13.07121175	         26.13350328	         -1.81148487	          2.08493319	          3.40105349	
          0.05923334	        -16.22894211	         -0.16329547	          0.65064587	          0.19436965	          0.91502246	          0.00103837	         42.88829493	          4.50618275	          5.11509508	        -38.27876888	         16.85312736	         -3.59604182	          2.16444819	         24.13413351	         -1.62721734	         -3.67069667	        -53.46581242	         16.52466022	          6.20868330	          5.16915412	        -11.73696663	          2.78681078	         -0.93406362	         23.99090363	          0.64152745	         -0.62030439	         12.69460064	         26.34545464	         -1.71876536	          1.77801994	          3.82010589	
          0.06461819	        -16.23321993	         -0.18676934	          0.87700656	          0.21160257	          0.91474112	          0.00117309	         42.09484345	          4.60161917	          5.21674149	        -38.88159579	         17.63521466	         -3.91143087	          2.84381639	         25.48379315	         -1.60282128	         -3.70414318	        -53.75112277	         17.95074834	          6.02156534	          4.79686963	        -11.81789661	          2.67947166	         -0.71992443	         24.08238219	          0.52859370	         -0.56125267	         12.28824749	         26.55572984	         -1.61269853	          1.47095715	          4.25029504	
          0.07000304	        -16.24061520	         -0.20311139	          1.09736804	          0.22883354	          0.91473195	          0.00129619	         41.19875844	          4.66888718	          5.29122155	        -39.30247249	         18.30733805	         -4.16062348	          3.58352289	         26.83500542	         -1.55170613	         -3.73205954	        -53.95170953	         19.27350953	          5.84715086	          4.44835030	        -11.89410952	          2.55432367	         -0.50233805	         24.17990443	          0.41016970	         -0.49645759	         11.85542959	         26.76091780	         -1.49388994	          1.16503366	          4.68995328	
          0.07538789	        -16.25083797	         -0.21193347	          1.30956688	          0.24607472	          0.91497691	          0.00140791	         40.20632902	          4.70529914	          5.33459397	        -39.55094711	         18.87076891	         -4.33776251	          4.37548448	         28.18172571	         -1.47331740	         -3.74875020	        -54.07265458	         20.47523938	          5.68611518	          4.12537640	        -11.96466384	          2.41171814	         -0.28154838	         24.28111216	          0.28677449	         -0.42336981	         11.39922742	         26.95782601	         -1.36316314	          0.86173487	          5.13712745	
          0.08077273	        -16.26361414	         -0.21312304	          1.51216322	          0.26333832	          0.91545799	          0.00150825	         39.12256246	          4.70996683	          5.34539487	        -39.63492724	         19.32829266	         -4.44273988	          5.21304603	         29.51765847	         -1.36857136	         -3.75280397	        -54.11606311	         21.54305979	          5.53878001	          3.82903410	        -12.02866600	          2.25241298	         -0.05839728	         24.38360888	          0.15918548	         -0.33977541	         10.92280192	         27.14329413	         -1.22167902	          0.56268374	          5.59000950	
